# xmcd
#
# Track frame offsets:
#	150
#	25100
#	44285
#	69370
#	90605
#	109457
#	127675
#	150515
#	168420
#	187750
#	207052
#	223085
#	237722
#
# Disc length: 3558 seconds
#
# Revision: 0
# Processed by: cddbd v1.5PL3 Copyright (c) Steve Scherf et al.
# Submitted via: audiograbber 1.80
#
DISCID=a80de40d
DTITLE=Chain - Trouble In The Wind
DYEAR=1900
DGENRE=
TTITLE0=Walls Fall Down
TTITLE1=New One
TTITLE2=Cold Comfort
TTITLE3=Hooker Does The Boogie
TTITLE4=Adelaide River
TTITLE5=Lock On My Door
TTITLE6=Mighty Time
TTITLE7=Trouble In The Wind
TTITLE8=Wonderful Life
TTITLE9=Uncertain Blues
TTITLE10=Don't Call Me A Drunkard
TTITLE11=Morris
TTITLE12=McGoo
EXTD=
EXTT0=
EXTT1=
EXTT2=
EXTT3=
EXTT4=
EXTT5=
EXTT6=
EXTT7=
EXTT8=
EXTT9=
EXTT10=
EXTT11=
EXTT12=
PLAYORDER=
